<svg xmlns="http://www.w3.org/2000/svg" viewBox="0 0 496.68 212.4"><defs><style>.cls-1{fill:#fff;}.cls-2{fill:#f3bd87;}.cls-3{fill:#669cd3;}.cls-4{fill:#0077be;}.cls-5{fill:#d5783d;}</style></defs><title>Asset 6</title><g id="Layer_2" data-name="Layer 2"><g id="die_line" data-name="die line"><path class="cls-1" d="M233.48,47.89c1.68,7.46,6.65,11.86,15.87,11.86,10.25,0,14.18-5.13,14.18-11.22,0-6.33-2.8-10.25-15.15-13.3-11.86-3-17-6.81-17-14.91,0-7.37,5.37-14.26,17.39-14.26,12.35,0,17.55,7.53,18.28,14.34h-4.49c-1.28-6-5.21-10.33-14-10.33-8.09,0-12.5,3.76-12.5,10s3.69,8.58,14,11.14c15.78,3.93,18.11,10.26,18.11,17,0,8.26-6,15.39-19,15.39-14,0-19.16-8.17-20.2-15.71Z"/><path class="cls-1" d="M273.06,22.89h7.46V10.39h4v12.5h9.54v3.77h-9.54v26c0,4.49,1,7,4.81,7a15.15,15.15,0,0,0,4.17-.48V62.8a14.1,14.1,0,0,1-5,.72c-5.13,0-8-2.56-8-9V26.66h-7.46Z"/><path class="cls-1" d="M331.08,51.26c0,3.93.09,10.18.09,11.7h-3.85a64.52,64.52,0,0,1-.24-7c-1.68,4.72-5.77,7.93-12.9,7.93-5.77,0-13.15-2.24-13.15-14.5V22.89H305V48.45C305,54.3,306.8,60,314.74,60c9,0,12.34-5.05,12.34-16.5V22.89h4Z"/><path class="cls-1" d="M375.16,3.9V51.42c0,3.85,0,7.53.08,11.54h-3.85c-.16-1-.24-4.73-.24-6.73-2,4.89-6.49,7.69-13.46,7.69C347.27,63.92,341,55.43,341,43.4c0-12.34,6.81-21.47,17.71-21.47,8,0,11.22,3.44,12.42,6V3.9ZM345.27,43.24c0,11,5.69,16.91,12.58,16.91,10.58,0,13.46-7.29,13.46-18.19,0-10.34-2.48-16.27-12.74-16.27C350.64,25.69,345.27,32,345.27,43.24Z"/><path class="cls-1" d="M389.19,43.4c.08,10.34,5.28,16.75,13,16.75,7.53,0,10.1-4.24,11.54-7.53h4.08c-1.68,5.29-5.93,11.3-15.78,11.3-12.18,0-16.91-10.5-16.91-20.68,0-11.46,5.69-21.31,17.39-21.31,12.34,0,16.27,10.66,16.27,18.19,0,1.12,0,2.24-.08,3.28Zm25.4-3.52c-.08-7.94-4.41-14.19-12.26-14.19-8.26,0-12,5.77-12.9,14.19Z"/><path class="cls-1" d="M428.53,33c0-3.53,0-6.9-.08-10.1h3.93c.16,1.28.24,6.49.16,7.61,1.76-4.08,5-8.57,13.3-8.57,7.14,0,13.47,4,13.47,15.06V63h-4V37.63c0-7.13-3-11.78-9.94-11.78-9.53,0-12.82,7.94-12.82,16.67V63h-4Z"/><path class="cls-1" d="M466.2,22.89h7.45V10.39h4v12.5h9.54v3.77h-9.54v26c0,4.49,1,7,4.81,7a15.12,15.12,0,0,0,4.16-.48V62.8a14,14,0,0,1-5,.72c-5.13,0-8-2.56-8-9V26.66H466.2Z"/><path class="cls-1" d="M233.14,121.48c1.62,7.15,6.38,11.38,15.22,11.38,9.84,0,13.61-4.92,13.61-10.76,0-6.08-2.69-9.84-14.53-12.76-11.38-2.85-16.3-6.54-16.3-14.3,0-7.07,5.15-13.69,16.68-13.69,11.84,0,16.84,7.23,17.53,13.76h-4.3c-1.23-5.76-5-9.91-13.46-9.91-7.76,0-12,3.61-12,9.61s3.54,8.22,13.45,10.68c15.15,3.77,17.38,9.84,17.38,16.3,0,7.92-5.77,14.76-18.22,14.76-13.45,0-18.37-7.84-19.37-15.07Z"/><path class="cls-1" d="M277.81,117.18c.08,9.91,5.07,16.06,12.45,16.06s9.69-4.07,11.07-7.22h3.92c-1.61,5.07-5.69,10.84-15.14,10.84-11.69,0-16.22-10.07-16.22-19.84,0-11,5.46-20.44,16.68-20.44,11.84,0,15.6,10.22,15.6,17.45,0,1.07,0,2.15-.07,3.15Zm24.37-3.38c-.08-7.62-4.23-13.61-11.76-13.61-7.92,0-11.54,5.53-12.38,13.61Z"/><path class="cls-1" d="M315.56,108c0-6.45-.08-9.22-.08-10.45h3.77c.07,1.23.15,3.69.15,8.61a14.54,14.54,0,0,1,13.38-9.53v4.15c-8,.53-13.38,6.07-13.38,15.22v20h-3.84Z"/><path class="cls-1" d="M342,97.5c6.23,17.6,10.53,29.59,12,34.51h.08c.85-2.84,5.15-14.29,12.61-34.51h4.07l-14.53,38.43h-4.61L337.93,97.5Z"/><path class="cls-1" d="M378.52,79.28h3.84v7.46h-3.84Zm0,18.22h3.84v38.43h-3.84Z"/><path class="cls-1" d="M423.26,124.63c-1.85,6.77-6.3,12.23-14.91,12.23-9.61,0-16.46-7.15-16.46-20,0-10.53,5.62-20.29,16.92-20.29,9.76,0,13.76,6.91,14.45,12.3h-3.92c-1.15-4.46-4.08-8.69-10.61-8.69-8.15,0-12.76,6.92-12.76,16.53,0,9.14,4.3,16.52,12.38,16.52,5.61,0,9-2.84,11-8.61Z"/><path class="cls-1" d="M433.41,117.18c.08,9.91,5.07,16.06,12.45,16.06,7.23,0,9.69-4.07,11.07-7.22h3.92c-1.61,5.07-5.69,10.84-15.14,10.84-11.69,0-16.22-10.07-16.22-19.84,0-11,5.46-20.44,16.68-20.44,11.84,0,15.6,10.22,15.6,17.45,0,1.07,0,2.15-.07,3.15Zm24.37-3.38c-.08-7.62-4.23-13.61-11.76-13.61-7.92,0-11.54,5.53-12.38,13.61Z"/><path class="cls-1" d="M472.08,125.33c1.3,5,4.84,8,10.91,8,6.85,0,9.61-3.15,9.61-7.46s-1.84-6.53-10.45-8.61c-9.92-2.38-12.38-5.38-12.38-10.45,0-5.3,4-10.22,12.69-10.22s12.83,5.3,13.45,10.76h-3.84c-.7-3.23-3.23-7.23-9.77-7.23-6.69,0-8.61,3.31-8.61,6.38,0,3.54,1.85,5.31,9.46,7.15,10.84,2.62,13.53,6.15,13.53,11.92,0,7-5.69,11.3-13.76,11.3-8.77,0-13.69-4.62-14.76-11.53Z"/><path class="cls-1" d="M229.16,152.2H249.4c10.37,0,17.5,5.75,17.5,15.79,0,10.2-7,16.19-18.06,16.19H233.61v24.7h-4.45Zm4.45,27.93h15.63c9.15,0,13-4.85,13-12,0-7.61-5-11.9-12.63-11.9h-16Z"/><path class="cls-1" d="M276.61,208.88V149.2h4.05v59.68Z"/><path class="cls-1" d="M324.23,197.06c0,4,.08,10.28.08,11.82h-3.89a65.72,65.72,0,0,1-.24-7c-1.7,4.77-5.83,8-13,8-5.83,0-13.28-2.26-13.28-14.65V168.39h4v25.83c0,5.92,1.86,11.67,9.88,11.67,9.07,0,12.47-5.11,12.47-16.69V168.39h4.05Z"/><path class="cls-1" d="M337,197.71c1.38,5.26,5.11,8.42,11.5,8.42,7.21,0,10.13-3.32,10.13-7.86s-1.95-6.88-11-9.07c-10.44-2.51-13-5.66-13-11,0-5.59,4.22-10.77,13.37-10.77s13.52,5.59,14.17,11.34h-4.05c-.73-3.4-3.4-7.61-10.29-7.61-7,0-9.07,3.48-9.07,6.72,0,3.72,1.95,5.58,10,7.53,11.42,2.75,14.26,6.48,14.26,12.55,0,7.37-6,11.9-14.5,11.9-9.23,0-14.41-4.85-15.55-12.14Z"/><polygon class="cls-2" points="102.26 0 83.9 0 83.9 84.58 0 84.58 0 102.26 101.59 102.26 101.59 101.59 102.26 101.59 102.26 0"/><polygon class="cls-3" points="213.13 102.26 213.13 83.9 128.56 83.9 128.56 0 110.87 0 110.87 101.59 111.54 101.59 111.54 102.26 213.13 102.26"/><polygon class="cls-4" points="110.87 212.4 129.23 212.4 129.23 127.82 213.13 127.82 213.13 110.13 111.54 110.13 111.54 110.81 110.87 110.81 110.87 212.4"/><polygon class="cls-5" points="0 109.45 0 127.82 84.58 127.82 84.58 211.72 102.26 211.72 102.26 110.13 101.59 110.13 101.59 109.45 0 109.45"/></g></g></svg>